<?xml version="1.0" encoding="utf-8"?>
<!-- Generator: Adobe Illustrator 19.2.0, SVG Export Plug-In . SVG Version: 6.00 Build 0)  -->
<svg version="1.1" id="Layer_1" xmlns="http://www.w3.org/2000/svg" xmlns:xlink="http://www.w3.org/1999/xlink" x="0px" y="0px"
	 viewBox="0 0 333 31" style="enable-background:new 0 0 333 31;" xml:space="preserve">
<style type="text/css">
	.st0{fill:#FFFFFF;}
	.st1{fill:#000A02;}
	.st2{
		fill:#00C000;
		mix-blend-mode: hard-light;
	}
</style>
<rect class="st0" width="333" height="31"/>
<path d="M96.9,20.2l0.6,4.7h0.1l0.7-4.8L104.5,2h2l6.2,18.2l0.7,4.7h0.1l0.8-4.8L119.2,2h4l-8.5,28.4h-2.3l-6.1-18.2L105.4,8h-0.2l-0.8,4.3l-6.1,18.2H96L87.3,2h4.2L96.9,20.2z"/>
<path d="M127.3,4c0-0.6,0.2-1.2,0.7-1.7c0.5-0.5,1.1-0.7,1.9-0.7c0.8,0,1.4,0.2,1.9,0.7c0.5,0.5,0.8,1,0.8,1.7s-0.3,1.2-0.8,1.6c-0.5,0.5-1.1,0.7-1.9,0.7c-0.8,0-1.4-0.2-1.9-0.7C127.6,5.2,127.3,4.6,127.3,4z M128.1,9h3.7v21h-3.7V9z"/>
<path d="M145.7,20.6h-2.3V30h-3.7V2h3.7v16.6l2.1-0.7l7-8.9h4.3l-6.7,8.1h0l-2.2,1.6l2.5,1.8l7.4,9.5h-4.6L145.7,20.6z"/>
<path d="M162.3,4c0-0.6,0.2-1.2,0.7-1.7c0.5-0.5,1.1-0.7,1.9-0.7c0.8,0,1.4,0.2,1.9,0.7c0.5,0.5,0.8,1,0.8,1.7s-0.3,1.2-0.8,1.6c-0.5,0.5-1.1,0.7-1.9,0.7c-0.8,0-1.4-0.2-1.9-0.7C162.5,5.2,162.3,4.6,162.3,4z M163,9h3.7v21H163V9z"/>
<path d="M188.3,30V18.5c0-1.1-0.1-2.1-0.2-3c-0.1-0.9-0.3-1.6-0.6-2.1c-0.3-0.6-0.8-1-1.3-1.3c-0.6-0.3-1.3-0.4-2.2-0.4c-1.4,0-2.6,0.4-3.5,1.2s-1.6,1.8-2,3V30h-3.7V9h2.5l0.7,2.8h0.4c0.9-1,1.8-1.8,2.9-2.4c1.1-0.7,2.5-1,4.2-1c1.4,0,2.6,0.3,3.6,0.9c1,0.6,1.7,1.6,2.2,3.1c0.8-1.2,1.8-2.2,3-2.9c1.2-0.7,2.6-1.1,4.1-1.1c1.3,0,2.4,0.1,3.3,0.4c0.9,0.3,1.6,0.8,2.2,1.5c0.6,0.7,1,1.7,1.2,2.9s0.4,2.8,0.4,4.6V30h-3.7V17.9c0-1.1-0.1-2-0.2-2.8s-0.3-1.4-0.7-1.9c-0.3-0.5-0.8-0.9-1.3-1.2c-0.6-0.3-1.3-0.4-2.3-0.4c-1.5,0-2.7,0.4-3.6,1.2s-1.5,2-1.9,3.6V30H188.3z"/>
<path d="M229.7,28.3c-0.9,0.7-2.1,1.2-3.5,1.7c-1.4,0.4-2.9,0.6-4.5,0.6c-1.8,0-3.3-0.3-4.6-0.8c-1.3-0.5-2.4-1.3-3.2-2.2c-0.8-1-1.4-2.1-1.8-3.5s-0.6-2.9-0.6-4.6c0-3.6,0.9-6.4,2.7-8.3c1.8-1.9,4.3-2.9,7.6-2.9c1,0,2.1,0.1,3.1,0.3s2,0.7,2.8,1.3c0.8,0.6,1.5,1.5,2,2.6c0.5,1.1,0.8,2.5,0.8,4.3c0,0.4,0,0.9,0,1.5c0,0.6-0.1,1.1-0.2,1.6h-15c0.1,2.5,0.6,4.3,1.8,5.6c1.1,1.3,3,1.9,5.7,1.9c1.1,0,2.2-0.2,3.2-0.6s1.8-0.8,2.4-1.4L229.7,28.3z M226.9,17.4c0.1-2.1-0.4-3.6-1.3-4.5s-2.2-1.3-3.9-1.3c-1.9,0-3.3,0.4-4.4,1.3c-1.1,0.9-1.7,2.4-1.9,4.5H226.9z"/>
<path d="M254.5,22.8c0,1.4,0,2.6,0.1,3.8s0.2,2.4,0.4,3.5h-2.4l-0.9-3.2h-0.4c-0.6,1.1-1.5,1.9-2.7,2.6c-1.2,0.7-2.6,1-4.1,1c-3,0-5.3-0.9-6.7-2.7c-1.5-1.8-2.2-4.5-2.2-8.2c0-3.6,0.9-6.3,2.7-8.2c1.8-1.9,4.4-2.9,7.7-2.9c0.6,0,1.1,0,1.5,0.1c0.4,0,0.9,0.1,1.2,0.1c0.4,0.1,0.8,0.1,1.1,0.2c0.4,0.1,0.7,0.2,1.1,0.3V2h3.7V22.8z M250.8,12.9c-0.6-0.5-1.3-0.8-2-0.9c-0.7-0.2-1.7-0.3-2.8-0.3c-2.2,0-3.9,0.6-5.1,1.9c-1.2,1.3-1.8,3.3-1.8,6.1c0,1.1,0.1,2.2,0.3,3.1c0.2,0.9,0.6,1.8,1,2.5c0.5,0.7,1.1,1.2,1.8,1.6c0.8,0.4,1.7,0.6,2.8,0.6c1.6,0,2.9-0.4,3.8-1.2c0.9-0.8,1.6-2,1.9-3.6V12.9z"/>
<path d="M262,4c0-0.6,0.2-1.2,0.7-1.7c0.5-0.5,1.1-0.7,1.9-0.7c0.8,0,1.4,0.2,1.9,0.7c0.5,0.5,0.8,1,0.8,1.7s-0.3,1.2-0.8,1.6c-0.5,0.5-1.1,0.7-1.9,0.7c-0.8,0-1.4-0.2-1.9-0.7C262.2,5.2,262,4.6,262,4z M262.7,9h3.7v21h-3.7V9z"/>
<path d="M278,9v11.6c0,1.1,0.1,2.1,0.2,3c0.1,0.9,0.4,1.6,0.7,2.1c0.3,0.6,0.8,1,1.4,1.3s1.4,0.5,2.3,0.5c1.6,0,2.9-0.5,3.9-1.4c1-0.9,1.8-2,2.3-3.4V9h3.7v15c0,1,0,2,0.1,3.1c0.1,1.1,0.2,2,0.4,2.9h-2.5l-1-3.5h-0.4c-0.7,1.2-1.7,2.2-2.9,2.9c-1.2,0.7-2.8,1.1-4.6,1.1c-1.2,0-2.3-0.1-3.2-0.4s-1.7-0.8-2.3-1.5c-0.6-0.7-1.1-1.6-1.4-2.8c-0.3-1.2-0.5-2.6-0.5-4.4V9H278z"/>
<path d="M313.7,30V18.5c0-1.1-0.1-2.1-0.2-3c-0.1-0.9-0.3-1.6-0.6-2.1c-0.3-0.6-0.8-1-1.3-1.3c-0.6-0.3-1.3-0.4-2.2-0.4c-1.4,0-2.6,0.4-3.5,1.2s-1.6,1.8-2,3V30h-3.7V9h2.5l0.7,2.8h0.4c0.9-1,1.8-1.8,2.9-2.4c1.1-0.7,2.5-1,4.2-1c1.4,0,2.6,0.3,3.6,0.9c1,0.6,1.7,1.6,2.2,3.1c0.8-1.2,1.8-2.2,3-2.9c1.2-0.7,2.6-1.1,4.1-1.1c1.3,0,2.4,0.1,3.3,0.4c0.9,0.3,1.6,0.8,2.2,1.5c0.6,0.7,1,1.7,1.2,2.9s0.4,2.8,0.4,4.6V30h-3.7V17.9c0-1.1-0.1-2-0.2-2.8s-0.3-1.4-0.7-1.9c-0.3-0.5-0.8-0.9-1.3-1.2c-0.6-0.3-1.3-0.4-2.3-0.4c-1.5,0-2.7,0.4-3.6,1.2s-1.5,2-1.9,3.6V30H313.7z"/>
<polygon class="st1" points="64,2 50,16 36,2 22,16 8,2 1,9 22,30 36,16 50,30 71,9 "/>
<polygon class="st2" points="71,23 50,2 36,16 22,2 1,23 8,30 22,16 36,30 50,16 64,30 "/>
</svg>
